<?xml version="1.0" encoding="UTF-8" standalone="no"?>
<svg
   version="1.1"
   width="874"
   height="856"
   id="svg47"
   sodipodi:docname="config-lens-outline.svg"
   inkscape:version="1.4.2 (f4327f4, 2025-05-13)"
   xmlns:inkscape="http://www.inkscape.org/namespaces/inkscape"
   xmlns:sodipodi="http://sodipodi.sourceforge.net/DTD/sodipodi-0.dtd"
   xmlns="http://www.w3.org/2000/svg"
   xmlns:svg="http://www.w3.org/2000/svg">
  <defs
     id="defs47" />
  <sodipodi:namedview
     id="namedview47"
     pagecolor="#505050"
     bordercolor="#ffffff"
     borderopacity="1"
     inkscape:showpageshadow="0"
     inkscape:pageopacity="0"
     inkscape:pagecheckerboard="1"
     inkscape:deskcolor="#505050"
     inkscape:zoom="1.3633178"
     inkscape:cx="449.63839"
     inkscape:cy="425.06598"
     inkscape:window-width="2560"
     inkscape:window-height="1369"
     inkscape:window-x="-8"
     inkscape:window-y="-8"
     inkscape:window-maximized="1"
     inkscape:current-layer="svg47" />
  <path
     d="M0 0 C1.16415888 -0.00445784 2.32831776 -0.00891569 3.52775419 -0.01350862 C4.80253492 -0.01332426 6.07731564 -0.01313989 7.39072609 -0.01294994 C8.76203535 -0.01625086 10.13334365 -0.01997691 11.50465071 -0.02409142 C15.2725219 -0.03409401 19.04037715 -0.03782542 22.80825973 -0.04048073 C26.87257992 -0.04438907 30.93688756 -0.05396717 35.00119972 -0.0626936 C44.81758857 -0.08244508 54.63397843 -0.09252344 64.45038217 -0.10142139 C69.0767746 -0.10580723 73.70316589 -0.11117335 78.32955742 -0.11641026 C93.71587257 -0.1334227 109.10218702 -0.14791522 124.48851013 -0.155159 C128.48029901 -0.1570688 132.47208787 -0.15898914 136.46387672 -0.16094494 C137.95203148 -0.16167055 137.95203148 -0.16167055 139.47024997 -0.16241082 C155.52915259 -0.17070492 171.58798057 -0.19603129 187.64685063 -0.22852562 C204.14639391 -0.26163844 220.64589931 -0.27961165 237.14547598 -0.28280324 C246.40432973 -0.28496464 255.66307469 -0.29365875 264.92189598 -0.31926441 C272.8100383 -0.34102933 280.69804541 -0.34899353 288.58621435 -0.33929763 C292.60634209 -0.33476938 296.62619121 -0.33655236 300.64628029 -0.35605907 C304.33676684 -0.37381061 308.02677402 -0.37259742 311.71726651 -0.35716178 C313.6634427 -0.35369857 315.60962464 -0.36972214 317.55572927 -0.38676625 C340.05463749 -0.22456257 360.31038083 9.51853479 376.21045876 25.13422108 C377.35321266 26.2402367 377.35321266 26.2402367 378.51905251 27.36859608 C391.2173397 40.48502445 400.34668336 59.79480084 400.33071327 78.2402544 C400.33277527 80.08064289 400.33277527 80.08064289 400.33487892 81.95821095 C400.33134028 83.30960585 400.32770548 84.6610005 400.32398415 86.01239491 C400.32370194 87.44168566 400.32386066 88.87097655 400.32442665 90.30026722 C400.32471332 94.17382728 400.31883763 98.04735631 400.31185269 101.92090917 C400.30559748 105.97147829 400.30501364 110.02204814 400.30382729 114.07262135 C400.30072037 121.7400186 400.29251559 129.40740159 400.2824778 137.07479256 C400.27129682 145.80509111 400.2658012 154.53539034 400.26078236 163.26569426 C400.25033245 181.22187796 400.23274537 199.17804837 400.21045876 217.13422108 C401.97528603 217.12538395 401.97528603 217.12538395 403.77576637 217.11636829 C408.19746857 217.09579715 412.61916667 217.08301459 417.04090309 217.07242298 C418.94406791 217.06681266 420.84722799 217.05917171 422.75037575 217.04935169 C471.17624316 216.80598165 521.7327511 231.35166928 561.21045876 260.13422108 C561.81132301 260.56815174 562.41218727 261.00208241 563.03125954 261.44916248 C582.69406008 275.69650615 601.49044577 291.68759842 616.21045876 311.13422108 C616.62569801 311.6730492 617.04093727 312.21187733 617.46875954 312.76703358 C641.53609518 344.0729955 657.7222659 379.74115001 665.96045876 418.32172108 C666.15929665 419.24654285 666.35813454 420.17136463 666.56299782 421.12421131 C669.7862392 436.9930082 670.58757774 452.60827527 670.52295876 468.75922108 C670.5208036 469.7301067 670.51864845 470.70099232 670.51642799 471.70129871 C670.46537512 486.04007293 670.06995789 500.03969075 667.21045876 514.13422108 C667.011782 515.14968006 666.81310524 516.16513905 666.60840797 517.21136951 C661.24844956 544.00714664 651.77334851 568.91572276 639.21045876 593.13422108 C640.4962986 594.40265858 640.4962986 594.40265858 641.80811501 595.69672108 C647.18911931 601.02733259 652.50367923 606.33070492 657.40577126 612.11078358 C660.18968855 615.23214539 663.19028219 618.1344393 666.1662693 621.07050037 C668.77183058 623.65460566 671.27106457 626.27640053 673.64795876 629.07172108 C676.6639868 632.61101182 679.90493453 635.86916853 683.21045876 639.13422108 C687.10941559 642.98544045 690.81870173 646.89843836 694.37061501 651.07562733 C696.71540939 653.69920831 699.20676444 656.16412212 701.71045876 658.63422108 C704.80537008 661.68760391 707.82980132 664.75745769 710.64795876 668.07172108 C713.66401407 671.61104382 716.90515328 674.86890934 720.21045876 678.13422108 C724.76120702 682.6351769 729.0714914 687.24853281 733.21045876 692.13422108 C733.73124001 692.7039867 734.25202126 693.27375233 734.78858376 693.86078358 C738.75071065 698.24313605 741.50532231 702.89847311 744.21045876 708.13422108 C745.01483376 709.52640858 745.01483376 709.52640858 745.83545876 710.94672108 C747.94430566 715.83541163 749.05196394 720.94890996 750.21045876 726.13422108 C750.39737282 726.9308617 750.58428688 727.72750233 750.77686501 728.54828358 C753.73790438 746.20781571 748.8378818 764.26014901 739.21045876 779.13422108 C732.47866927 788.32950299 722.00703172 799.31226947 711.21045876 803.13422108 C709.89743394 803.77898674 708.58493557 804.42482558 707.27295876 805.07172108 C690.62350167 812.38324253 672.13511455 812.06677921 655.21045876 806.13422108 C652.85663689 805.17529114 650.53679909 804.15990068 648.21045876 803.13422108 C646.99358376 802.63922108 645.77670876 802.14422108 644.52295876 801.63422108 C633.55474494 796.00303084 624.94790714 784.79708162 616.69874001 775.87640858 C613.93450421 772.89267088 611.10914259 769.98846172 608.21045876 767.13422108 C605.63134422 764.59345769 603.18872417 762.01022149 600.83545876 759.25922108 C597.94831057 755.88864342 594.86798498 752.74918587 591.71045876 749.63422108 C588.61553634 746.58084822 585.59111559 743.51098376 582.77295876 740.19672108 C579.75693071 736.65743034 576.51598298 733.39927362 573.21045876 730.13422108 C569.31150192 726.2830017 565.60221578 722.37000379 562.05030251 718.19281483 C559.25761506 715.06808811 556.25465623 712.15744473 553.27247047 709.21576405 C549.89879016 705.87012957 546.73254466 702.405419 543.64795876 698.79437733 C541.92865232 696.80876528 540.10480876 694.95279709 538.21045876 693.13422108 C533.38388017 694.60838539 529.033819 696.60673169 524.52295876 698.82172108 C495.79722882 712.55616173 463.35765326 721.17016029 431.41749001 721.33734608 C430.5166317 721.34426975 429.61577339 721.35119343 428.68761635 721.35832691 C425.79935226 721.37550129 422.91127149 721.38191297 420.02295876 721.38422108 C419.03791359 721.38556049 418.05286842 721.38689991 417.0379734 721.38827991 C401.0073075 721.38354523 385.36141635 720.89139353 369.71436501 717.05609608 C361.37433274 715.05844935 356.65620368 714.88639219 349.16358376 719.43109608 C341.28612098 723.97418307 331.48469278 726.25230491 322.42091751 726.26844215 C321.25675863 726.2729 320.09259975 726.27735784 318.89316332 726.28195077 C317.6183826 726.28176641 316.34360187 726.28158205 315.03019142 726.2813921 C313.65888216 726.28469301 312.28757386 726.28841906 310.9162668 726.29253358 C307.14839562 726.30253617 303.38054036 726.30626758 299.61265779 726.30892289 C295.54833759 726.31283122 291.48402995 726.32240932 287.41971779 726.33113575 C277.60332894 726.35088724 267.78693909 726.36096559 257.97053534 726.36986354 C253.34414291 726.37424939 248.71775162 726.3796155 244.09136009 726.38485241 C228.70504494 726.40186486 213.31873049 726.41635738 197.93240738 726.42360115 C193.94061851 726.42551095 189.94882964 726.4274313 185.95704079 726.42938709 C184.96493762 726.42987083 183.97283445 726.43035457 182.95066755 726.43085297 C166.89176492 726.43914708 150.83293694 726.46447345 134.77406688 726.49696777 C118.2745236 726.53008059 101.7750182 726.5480538 85.27544153 726.55124539 C76.01658778 726.55340679 66.75784282 726.5621009 57.49902153 726.58770657 C49.61087921 726.60947148 41.7228721 726.61743568 33.83470316 726.60773978 C29.81457542 726.60321153 25.7947263 726.60499452 21.77463722 726.62450123 C18.08415067 726.64225277 14.39414349 726.64103957 10.703651 726.62560394 C8.75747481 726.62214072 6.81129288 726.6381643 4.86518824 726.65520841 C-17.63371998 726.49300473 -37.88946332 716.74990737 -53.78954124 701.13422108 C-54.55137718 700.39687733 -55.31321312 699.65953358 -56.09813499 698.89984608 C-66.94057007 687.70038108 -72.97718935 674.0602595 -76.78954124 659.13422108 C-76.96981981 658.43785648 -77.15009838 657.74149188 -77.33583993 657.02402532 C-77.99322467 652.83688027 -77.93061486 648.70379599 -77.92376232 644.47157192 C-77.92611455 643.48766316 -77.92846678 642.5037544 -77.93089029 641.49003023 C-77.93757951 638.17298071 -77.93712209 634.85597038 -77.93671227 631.53891468 C-77.94001094 629.14465537 -77.94373652 626.75039663 -77.94785374 624.35613859 C-77.95682895 618.45297623 -77.96110135 612.54982093 -77.96337271 606.6466532 C-77.96633552 599.57652084 -77.97503347 592.50639843 -77.98378699 585.43627129 C-78.00463035 568.34587279 -78.01510145 551.25547257 -78.0239166 534.16506433 C-78.0281237 526.07860194 -78.03334564 517.9921403 -78.03860113 509.90567853 C-78.0564922 482.22065923 -78.07148742 454.53563972 -78.07892132 426.8506155 C-78.07939607 425.11253397 -78.07987196 423.37445245 -78.08034898 421.63637092 C-78.08058536 420.77444388 -78.08082173 419.91251684 -78.08106527 419.0244708 C-78.08226646 414.65757115 -78.08348191 410.2906715 -78.08470726 405.92377186 C-78.08494741 405.05714923 -78.08518756 404.1905266 -78.08543499 403.29764268 C-78.09332564 375.20783129 -78.1167522 347.11806217 -78.1492632 319.02826923 C-78.18357846 289.32530354 -78.20327408 259.62236257 -78.20656556 229.91937673 C-78.20698309 226.65712284 -78.20746265 223.39486896 -78.20798874 220.13261509 C-78.20811193 219.32936536 -78.20823512 218.52611562 -78.20836205 217.69852499 C-78.21069208 204.78356829 -78.22634115 191.86866073 -78.24683059 178.95372153 C-78.26710931 165.96525144 -78.27255623 152.97684025 -78.26305995 139.98835726 C-78.25785278 132.27737339 -78.26368522 124.5665859 -78.28559462 116.85563037 C-78.30073717 111.08910443 -78.29483194 105.32274972 -78.2809241 99.55622773 C-78.27854608 97.22974281 -78.28288161 94.90323887 -78.29475275 92.57678302 C-78.42257166 65.86463061 -71.98172543 43.6759318 -52.78954124 24.13422108 C-52.05219749 23.37238514 -51.31485374 22.6105492 -50.55516624 21.82562733 C-37.55179413 9.23679224 -18.30723934 0.0325944 0 0 Z "
     fill="#FEFEFE"
     transform="translate(97.78954124450684,28.865778923034668)"
     id="path1" />
  <path
     d="M0 0 C0.90919189 0.00000504 1.81838379 0.00001007 2.75512695 0.00001526 C5.79912478 0.00356256 8.84278891 0.02273512 11.88671875 0.04296875 C14.10896687 0.05127838 16.33121631 0.05924327 18.5534668 0.06689453 C45.95975335 0.18656477 73.36282315 0.60648617 100.76459694 1.09423733 C107.38365238 1.21133762 114.00283797 1.31921135 120.62207031 1.42578125 C130.23679884 1.58112241 139.85123221 1.74922627 149.46552181 1.92972755 C154.75562302 2.02885365 160.04570757 2.12333693 165.33609009 2.20623779 C170.33311288 2.28490259 175.32968551 2.3775749 180.32625961 2.48078918 C182.18147661 2.51672747 184.03679787 2.5476684 185.89218521 2.573349 C188.44478882 2.60950379 190.99641009 2.66360883 193.54858398 2.72216797 C194.66603736 2.73168771 194.66603736 2.73168771 195.80606556 2.74139977 C200.62017875 2.87729815 204.10523725 3.76148725 207.57421875 7.23046875 C207.67638615 9.08304196 207.70776156 10.93953902 207.71224976 12.79492188 C207.71770309 14.00334244 207.72315643 15.211763 207.72877502 16.45680237 C207.72989497 17.80844111 207.73094547 19.16007991 207.73193359 20.51171875 C207.7365996 21.92581847 207.74174281 23.33991668 207.74732971 24.75401306 C207.75863228 27.80751404 207.76705627 30.86100513 207.77344894 33.91452026 C207.78411572 38.7478195 207.80435974 43.58104837 207.8265686 48.41430664 C207.88852847 62.16142533 207.94242702 75.90854124 207.97558594 89.65576172 C207.99396515 97.24209663 208.02294798 104.82831497 208.06359065 112.41456413 C208.08461637 116.42842389 208.10011149 120.44213697 208.10239792 124.45605469 C208.10455467 128.23836356 208.12052799 132.02036776 208.14678764 135.80258369 C208.15394488 137.18558634 208.15609908 138.56862604 208.15268517 139.95164299 C208.13683827 147.59680519 208.50410186 154.16934195 211.57421875 161.23046875 C212.10402344 162.50083984 212.10402344 162.50083984 212.64453125 163.796875 C217.46546406 172.92093672 224.83282903 178.96174247 234.57421875 182.23046875 C241.98044875 184.19879976 249.17053344 184.52933777 256.80102539 184.53344727 C257.9810614 184.5418866 259.16109741 184.55032593 260.37689209 184.559021 C264.24605749 184.5846469 268.11514691 184.59689964 271.984375 184.609375 C274.68055197 184.62438002 277.37670419 184.64259746 280.07286072 184.66087341 C286.42493491 184.7023373 292.77701687 184.73484738 299.1291613 184.76334757 C310.5307826 184.81456975 321.93233888 184.87641084 333.33384603 184.94868797 C336.67770217 184.96953447 340.02153745 184.98783765 343.36543465 185.00067329 C347.08097848 185.0152677 350.79645267 185.03554456 354.51196289 185.05688477 C356.18016335 185.06080482 356.18016335 185.06080482 357.88206482 185.06480408 C358.88710052 185.07170258 359.89213623 185.07860107 360.92762756 185.08570862 C361.80601319 185.08956353 362.68439882 185.09341845 363.5894022 185.09739017 C365.57421875 185.23046875 365.57421875 185.23046875 366.57421875 186.23046875 C366.66091307 187.71918735 366.68125369 189.21191375 366.671875 190.703125 C366.66865234 191.60224609 366.66542969 192.50136719 366.66210938 193.42773438 C366.65373047 194.37326172 366.64535156 195.31878906 366.63671875 196.29296875 C366.63220703 197.24236328 366.62769531 198.19175781 366.62304688 199.16992188 C366.61121985 201.5234994 366.594739 203.87695352 366.57421875 206.23046875 C365.81391357 206.42157227 365.0536084 206.61267578 364.27026367 206.80957031 C360.76589817 207.69397627 357.26382668 208.58716688 353.76171875 209.48046875 C352.56611328 209.78082031 351.37050781 210.08117187 350.13867188 210.390625 C290.07904154 225.77374558 236.2468891 267.46111117 204.28271484 320.36816406 C195.0164127 336.19884544 186.57495917 352.87816156 180.57421875 370.23046875 C180.27370605 371.08382813 179.97319336 371.9371875 179.66357422 372.81640625 C169.71731607 401.50361098 166.11881317 430.95939194 166.57421875 461.23046875 C166.58146973 462.02485352 166.5887207 462.81923828 166.59619141 463.63769531 C167.0150631 496.45167787 175.45801268 532.31773551 190.64160156 561.40771484 C191.58788429 563.25717736 192.48836297 565.12311986 193.37890625 567 C202.71795357 586.55301591 214.86771936 604.06290447 229.51953125 619.9921875 C231.45524478 622.10086402 233.33241851 624.24833203 235.19921875 626.41796875 C240.88761897 632.91157631 246.96400252 638.50575708 253.69921875 643.9140625 C255.55021535 645.40542253 257.38512724 646.91708621 259.19921875 648.453125 C278.38008166 664.63697808 301.02434602 677.20030505 324.80078125 685.1171875 C327.57421875 686.23046875 327.57421875 686.23046875 328.57421875 688.23046875 C285.51558964 688.3450089 242.45697817 688.43306572 199.39822679 688.4857954 C194.31032478 688.49204864 189.22242306 688.49852028 184.13452148 688.50512695 C182.61520994 688.50709428 182.61520994 688.50709428 181.06520522 688.50910135 C164.68264739 688.53083517 148.30017763 688.57024552 131.91767197 688.61623273 C115.09737045 688.66305374 98.27711494 688.69077607 81.45675093 688.70091122 C71.08456403 688.70775868 60.71262609 688.72935563 50.34051586 688.77005108 C43.21998661 688.79655917 36.09958536 688.80445154 28.9790104 688.79797564 C24.87581665 688.79478525 20.77305679 688.79954249 16.66994095 688.82649612 C12.90331693 688.85105686 9.13741329 688.85191119 5.37075419 688.83496322 C3.38355751 688.83189247 1.39636768 688.85325223 -0.59070259 688.87587529 C-18.26399582 688.73097414 -34.05404698 681.4545119 -46.62890625 669.15625 C-58.92733627 656.59499736 -65.94355023 640.61462341 -65.80330467 623.01694107 C-65.80766499 622.04636973 -65.81202532 621.07579839 -65.81651777 620.0758158 C-65.82742157 616.84013299 -65.81707461 613.60488099 -65.80673218 610.36920166 C-65.81019067 608.01926002 -65.81495652 605.66932001 -65.82091391 603.31938338 C-65.83211723 597.5490918 -65.82941164 591.7789247 -65.82076162 586.00863147 C-65.81117482 579.09273259 -65.81904686 572.17688087 -65.82739735 565.26098431 C-65.84318005 551.71053255 -65.84183097 538.16012327 -65.83316061 524.60966748 C-65.82560884 512.74882478 -65.82364621 500.88799763 -65.82722855 489.02715302 C-65.8274577 488.23986836 -65.82768686 487.4525837 -65.82792296 486.64144193 C-65.828857 483.44541502 -65.82981221 480.24938811 -65.83080225 477.05336122 C-65.83997699 447.0781331 -65.83166309 417.102932 -65.81551156 387.12770806 C-65.80128056 360.5144862 -65.80254423 333.90130742 -65.81689453 307.28808594 C-65.83297135 277.37311955 -65.83932073 247.45817704 -65.83005774 217.54320693 C-65.82909563 214.35182047 -65.8281571 211.16043401 -65.82722855 207.96904755 C-65.82699131 207.18327462 -65.82675408 206.3975017 -65.82650966 205.58791747 C-65.82310203 193.739231 -65.82707926 181.89056182 -65.83466721 170.04187775 C-65.843257 156.56175453 -65.84107518 143.08168037 -65.82482497 129.60156325 C-65.81680898 122.72584705 -65.81344467 115.85021038 -65.82377243 108.97449493 C-65.83273814 102.67524832 -65.82775533 96.37616959 -65.81183977 90.07693812 C-65.80849988 87.80312713 -65.81016812 85.52930184 -65.81746714 83.25550011 C-65.88947745 58.95044648 -62.32756328 37.72769923 -45.42578125 19.23046875 C-39.72135019 13.52603769 -33.43750084 9.44468196 -26.30078125 5.79296875 C-25.65608887 5.46256592 -25.01139648 5.13216309 -24.34716797 4.79174805 C-16.46330922 0.98151563 -8.68494771 -0.07457443 0 0 Z "
     fill="#1B2B3C"
     transform="translate(103.42578125,44.76953125)"
     id="path2" />
  <path
     d="M0 0 C1.16415888 -0.00445784 2.32831776 -0.00891569 3.52775419 -0.01350862 C4.80253492 -0.01332426 6.07731564 -0.01313989 7.39072609 -0.01294994 C8.76203535 -0.01625086 10.13334365 -0.01997691 11.50465071 -0.02409142 C15.2725219 -0.03409401 19.04037715 -0.03782542 22.80825973 -0.04048073 C26.87257992 -0.04438907 30.93688756 -0.05396717 35.00119972 -0.0626936 C44.81758857 -0.08244508 54.63397843 -0.09252344 64.45038217 -0.10142139 C69.0767746 -0.10580723 73.70316589 -0.11117335 78.32955742 -0.11641026 C93.71587257 -0.1334227 109.10218702 -0.14791522 124.48851013 -0.155159 C128.48029901 -0.1570688 132.47208787 -0.15898914 136.46387672 -0.16094494 C137.95203148 -0.16167055 137.95203148 -0.16167055 139.47024997 -0.16241082 C155.52915259 -0.17070492 171.58798057 -0.19603129 187.64685063 -0.22852562 C204.14639391 -0.26163844 220.64589931 -0.27961165 237.14547598 -0.28280324 C246.40432973 -0.28496464 255.66307469 -0.29365875 264.92189598 -0.31926441 C272.8100383 -0.34102933 280.69804541 -0.34899353 288.58621435 -0.33929763 C292.60634209 -0.33476938 296.62619121 -0.33655236 300.64628029 -0.35605907 C304.33676684 -0.37381061 308.02677402 -0.37259742 311.71726651 -0.35716178 C313.6634427 -0.35369857 315.60962464 -0.36972214 317.55572927 -0.38676625 C340.05463749 -0.22456257 360.31038083 9.51853479 376.21045876 25.13422108 C377.35321266 26.2402367 377.35321266 26.2402367 378.51905251 27.36859608 C391.2173397 40.48502445 400.34668336 59.79480084 400.33071327 78.2402544 C400.33277527 80.08064289 400.33277527 80.08064289 400.33487892 81.95821095 C400.33134028 83.30960585 400.32770548 84.6610005 400.32398415 86.01239491 C400.32370194 87.44168566 400.32386066 88.87097655 400.32442665 90.30026722 C400.32471332 94.17382728 400.31883763 98.04735631 400.31185269 101.92090917 C400.30559748 105.97147829 400.30501364 110.02204814 400.30382729 114.07262135 C400.30072037 121.7400186 400.29251559 129.40740159 400.2824778 137.07479256 C400.27129682 145.80509111 400.2658012 154.53539034 400.26078236 163.26569426 C400.25033245 181.22187796 400.23274537 199.17804837 400.21045876 217.13422108 C401.97528603 217.12538395 401.97528603 217.12538395 403.77576637 217.11636829 C408.19746857 217.09579715 412.61916667 217.08301459 417.04090309 217.07242298 C418.94406791 217.06681266 420.84722799 217.05917171 422.75037575 217.04935169 C471.17624316 216.80598165 521.7327511 231.35166928 561.21045876 260.13422108 C561.81132301 260.56815174 562.41218727 261.00208241 563.03125954 261.44916248 C582.69406008 275.69650615 601.49044577 291.68759842 616.21045876 311.13422108 C616.62569801 311.6730492 617.04093727 312.21187733 617.46875954 312.76703358 C641.53609518 344.0729955 657.7222659 379.74115001 665.96045876 418.32172108 C666.15929665 419.24654285 666.35813454 420.17136463 666.56299782 421.12421131 C669.7862392 436.9930082 670.58757774 452.60827527 670.52295876 468.75922108 C670.5208036 469.7301067 670.51864845 470.70099232 670.51642799 471.70129871 C670.46537512 486.04007293 670.06995789 500.03969075 667.21045876 514.13422108 C667.011782 515.14968006 666.81310524 516.16513905 666.60840797 517.21136951 C661.24844956 544.00714664 651.77334851 568.91572276 639.21045876 593.13422108 C640.4962986 594.40265858 640.4962986 594.40265858 641.80811501 595.69672108 C647.18911931 601.02733259 652.50367923 606.33070492 657.40577126 612.11078358 C660.18968855 615.23214539 663.19028219 618.1344393 666.1662693 621.07050037 C668.77183058 623.65460566 671.27106457 626.27640053 673.64795876 629.07172108 C676.6639868 632.61101182 679.90493453 635.86916853 683.21045876 639.13422108 C687.10941559 642.98544045 690.81870173 646.89843836 694.37061501 651.07562733 C696.71540939 653.69920831 699.20676444 656.16412212 701.71045876 658.63422108 C704.80537008 661.68760391 707.82980132 664.75745769 710.64795876 668.07172108 C713.66401407 671.61104382 716.90515328 674.86890934 720.21045876 678.13422108 C724.76120702 682.6351769 729.0714914 687.24853281 733.21045876 692.13422108 C733.73124001 692.7039867 734.25202126 693.27375233 734.78858376 693.86078358 C738.75071065 698.24313605 741.50532231 702.89847311 744.21045876 708.13422108 C745.01483376 709.52640858 745.01483376 709.52640858 745.83545876 710.94672108 C747.94430566 715.83541163 749.05196394 720.94890996 750.21045876 726.13422108 C750.39737282 726.9308617 750.58428688 727.72750233 750.77686501 728.54828358 C753.73790438 746.20781571 748.8378818 764.26014901 739.21045876 779.13422108 C732.47866927 788.32950299 722.00703172 799.31226947 711.21045876 803.13422108 C709.89743394 803.77898674 708.58493557 804.42482558 707.27295876 805.07172108 C690.62350167 812.38324253 672.13511455 812.06677921 655.21045876 806.13422108 C652.85663689 805.17529114 650.53679909 804.15990068 648.21045876 803.13422108 C646.99358376 802.63922108 645.77670876 802.14422108 644.52295876 801.63422108 C633.55474494 796.00303084 624.94790714 784.79708162 616.69874001 775.87640858 C613.93450421 772.89267088 611.10914259 769.98846172 608.21045876 767.13422108 C605.63134422 764.59345769 603.18872417 762.01022149 600.83545876 759.25922108 C597.94831057 755.88864342 594.86798498 752.74918587 591.71045876 749.63422108 C588.61553634 746.58084822 585.59111559 743.51098376 582.77295876 740.19672108 C579.75693071 736.65743034 576.51598298 733.39927362 573.21045876 730.13422108 C569.31150192 726.2830017 565.60221578 722.37000379 562.05030251 718.19281483 C559.25761506 715.06808811 556.25465623 712.15744473 553.27247047 709.21576405 C549.89879016 705.87012957 546.73254466 702.405419 543.64795876 698.79437733 C541.92865232 696.80876528 540.10480876 694.95279709 538.21045876 693.13422108 C533.38388017 694.60838539 529.033819 696.60673169 524.52295876 698.82172108 C495.79722882 712.55616173 463.35765326 721.17016029 431.41749001 721.33734608 C430.5166317 721.34426975 429.61577339 721.35119343 428.68761635 721.35832691 C425.79935226 721.37550129 422.91127149 721.38191297 420.02295876 721.38422108 C419.03791359 721.38556049 418.05286842 721.38689991 417.0379734 721.38827991 C401.0073075 721.38354523 385.36141635 720.89139353 369.71436501 717.05609608 C361.37433274 715.05844935 356.65620368 714.88639219 349.16358376 719.43109608 C341.28612098 723.97418307 331.48469278 726.25230491 322.42091751 726.26844215 C321.25675863 726.2729 320.09259975 726.27735784 318.89316332 726.28195077 C317.6183826 726.28176641 316.34360187 726.28158205 315.03019142 726.2813921 C313.65888216 726.28469301 312.28757386 726.28841906 310.9162668 726.29253358 C307.14839562 726.30253617 303.38054036 726.30626758 299.61265779 726.30892289 C295.54833759 726.31283122 291.48402995 726.32240932 287.41971779 726.33113575 C277.60332894 726.35088724 267.78693909 726.36096559 257.97053534 726.36986354 C253.34414291 726.37424939 248.71775162 726.3796155 244.09136009 726.38485241 C228.70504494 726.40186486 213.31873049 726.41635738 197.93240738 726.42360115 C193.94061851 726.42551095 189.94882964 726.4274313 185.95704079 726.42938709 C184.96493762 726.42987083 183.97283445 726.43035457 182.95066755 726.43085297 C166.89176492 726.43914708 150.83293694 726.46447345 134.77406688 726.49696777 C118.2745236 726.53008059 101.7750182 726.5480538 85.27544153 726.55124539 C76.01658778 726.55340679 66.75784282 726.5621009 57.49902153 726.58770657 C49.61087921 726.60947148 41.7228721 726.61743568 33.83470316 726.60773978 C29.81457542 726.60321153 25.7947263 726.60499452 21.77463722 726.62450123 C18.08415067 726.64225277 14.39414349 726.64103957 10.703651 726.62560394 C8.75747481 726.62214072 6.81129288 726.6381643 4.86518824 726.65520841 C-17.63371998 726.49300473 -37.88946332 716.74990737 -53.78954124 701.13422108 C-54.55137718 700.39687733 -55.31321312 699.65953358 -56.09813499 698.89984608 C-66.94057007 687.70038108 -72.97718935 674.0602595 -76.78954124 659.13422108 C-76.96981981 658.43785648 -77.15009838 657.74149188 -77.33583993 657.02402532 C-77.99322467 652.83688027 -77.93061486 648.70379599 -77.92376232 644.47157192 C-77.92611455 643.48766316 -77.92846678 642.5037544 -77.93089029 641.49003023 C-77.93757951 638.17298071 -77.93712209 634.85597038 -77.93671227 631.53891468 C-77.94001094 629.14465537 -77.94373652 626.75039663 -77.94785374 624.35613859 C-77.95682895 618.45297623 -77.96110135 612.54982093 -77.96337271 606.6466532 C-77.96633552 599.57652084 -77.97503347 592.50639843 -77.98378699 585.43627129 C-78.00463035 568.34587279 -78.01510145 551.25547257 -78.0239166 534.16506433 C-78.0281237 526.07860194 -78.03334564 517.9921403 -78.03860113 509.90567853 C-78.0564922 482.22065923 -78.07148742 454.53563972 -78.07892132 426.8506155 C-78.07939607 425.11253397 -78.07987196 423.37445245 -78.08034898 421.63637092 C-78.08058536 420.77444388 -78.08082173 419.91251684 -78.08106527 419.0244708 C-78.08226646 414.65757115 -78.08348191 410.2906715 -78.08470726 405.92377186 C-78.08494741 405.05714923 -78.08518756 404.1905266 -78.08543499 403.29764268 C-78.09332564 375.20783129 -78.1167522 347.11806217 -78.1492632 319.02826923 C-78.18357846 289.32530354 -78.20327408 259.62236257 -78.20656556 229.91937673 C-78.20698309 226.65712284 -78.20746265 223.39486896 -78.20798874 220.13261509 C-78.20811193 219.32936536 -78.20823512 218.52611562 -78.20836205 217.69852499 C-78.21069208 204.78356829 -78.22634115 191.86866073 -78.24683059 178.95372153 C-78.26710931 165.96525144 -78.27255623 152.97684025 -78.26305995 139.98835726 C-78.25785278 132.27737339 -78.26368522 124.5665859 -78.28559462 116.85563037 C-78.30073717 111.08910443 -78.29483194 105.32274972 -78.2809241 99.55622773 C-78.27854608 97.22974281 -78.28288161 94.90323887 -78.29475275 92.57678302 C-78.42257166 65.86463061 -71.98172543 43.6759318 -52.78954124 24.13422108 C-52.05219749 23.37238514 -51.31485374 22.6105492 -50.55516624 21.82562733 C-37.55179413 9.23679224 -18.30723934 0.0325944 0 0 Z M-14.78954124 19.13422108 C-15.43608665 19.3842992 -16.08263206 19.63437733 -16.74876976 19.89203358 C-35.90993767 27.91699715 -47.94227764 42.36063226 -55.78954124 61.13422108 C-58.99051464 70.25147635 -59.93946439 79.24467572 -59.92655563 88.85276413 C-59.92920746 89.8184205 -59.93185929 90.78407686 -59.93459147 91.77899554 C-59.9422644 95.02192053 -59.94284288 98.26480752 -59.94344139 101.50774097 C-59.94745732 103.85351622 -59.95189577 106.19929078 -59.95672095 108.54506451 C-59.96742354 114.32057278 -59.973439 120.0960727 -59.97742982 125.87158921 C-59.98244778 132.79059605 -59.99317661 139.70959119 -60.00391156 146.6285911 C-60.03073206 164.14553671 -60.04579296 181.66248786 -60.05925268 199.17944798 C-60.06292431 203.92533513 -60.06692711 208.67122196 -60.07100534 213.41710877 C-60.0962667 242.89022288 -60.11830909 272.36333756 -60.13073349 301.83646011 C-60.13365468 308.66219491 -60.13662224 315.48792968 -60.1396389 322.31366444 C-60.14000981 323.16165242 -60.14038072 324.00964041 -60.14076287 324.883325 C-60.15291561 352.37076994 -60.18385674 379.85815081 -60.22556042 407.34556567 C-60.2683747 435.6166448 -60.29497781 463.8876901 -60.3002082 492.15880252 C-60.30094861 496.15420537 -60.30185928 500.14960816 -60.30286598 504.14501095 C-60.3030566 504.93130245 -60.30324721 505.71759395 -60.3034436 506.52771247 C-60.30695277 519.16528593 -60.32723005 531.80277893 -60.35366262 544.44032288 C-60.37984615 557.15076258 -60.38751823 569.86110961 -60.37656133 582.57157242 C-60.3711218 589.4535241 -60.37358414 596.3352431 -60.39902687 603.21715641 C-60.42154251 609.52348227 -60.42076074 615.82937003 -60.401823 622.13570369 C-60.39902633 624.41100563 -60.40460274 626.68633742 -60.41963594 628.96159142 C-60.55545325 650.8654564 -56.54351472 669.15582227 -40.71532249 685.33734608 C-33.48118873 692.42011803 -25.2839082 697.63108438 -15.78954124 701.13422108 C-15.13481351 701.38222361 -14.48008577 701.63022615 -13.80551779 701.88574392 C-6.39769238 704.4228025 0.54394533 704.54751039 8.32071877 704.49498463 C9.73178321 704.49629494 11.14284693 704.4989255 12.5539068 704.50275213 C16.40794326 704.50942482 20.26172716 704.49750913 24.11573148 704.48241794 C28.28055671 704.46941511 32.44536868 704.47385003 36.61020851 704.47612476 C43.81829746 704.47769482 51.02630469 704.46831365 58.23437309 704.45141125 C68.65590829 704.42698946 79.07740412 704.41921273 89.49896483 704.41544727 C106.40884065 704.40888777 123.31867296 704.38894023 140.22852516 704.36053944 C156.651049 704.33298588 173.07356099 704.31175865 189.49610329 704.299016 C190.50905455 704.29822783 191.52200581 704.29743966 192.56565256 704.2966276 C197.64753037 704.29271238 202.72940826 704.28892128 207.81128621 704.28519189 C249.94437399 704.25411161 292.07741388 704.20128947 334.21045876 704.13422108 C331.39531004 701.09506348 328.99284535 700.21215098 325.02295876 698.94672108 C317.42500647 696.38126911 310.40576196 692.99389779 303.32422829 689.2509203 C301.90437179 688.50081362 300.48078149 687.75773602 299.05372047 687.02142811 C282.10335738 678.25347786 267.03575672 667.27416239 253.21045876 654.13422108 C251.80034428 652.89754314 250.38412275 651.66777634 248.96045876 650.44672108 C227.16689936 631.44948397 210.1358948 606.3595312 197.79639626 580.38422108 C196.30013777 577.19096179 196.30013777 577.19096179 194.62061501 574.52093983 C193.15534843 572.04094571 192.20929365 569.66731647 191.27295876 566.94672108 C190.35216474 564.28797819 189.42785203 561.64794999 188.33106422 559.05609608 C185.24002669 551.72337586 183.16840504 544.21086156 181.21045876 536.50922108 C181.03715034 535.83258411 180.86384193 535.15594715 180.68528175 534.45880604 C175.86038565 515.51944198 172.59106423 496.7036859 172.21045876 477.13422108 C172.18467751 476.29246326 172.15889626 475.45070545 172.13233376 474.58343983 C171.6869924 459.55316899 172.984525 444.99416345 175.21045876 430.13422108 C175.33904274 429.2494408 175.46762672 428.36466053 175.60010719 427.45306873 C179.33123101 402.66910254 186.92226615 375.58617031 200.21045876 354.13422108 C201.09807706 352.44935286 201.98504919 350.76410965 202.86060524 349.07294178 C211.85301078 331.76599548 223.1484321 316.34723921 235.91553688 301.62884998 C237.07840355 300.28664227 238.23104067 298.935588 239.38233376 297.58343983 C273.88276364 257.9598258 321.7562264 234.03678529 372.21045876 222.13422108 C372.23934022 218.82173921 372.25721675 215.5092894 372.27295876 212.19672108 C372.28133766 211.25119373 372.28971657 210.30566639 372.29834938 209.3314867 C372.30157204 208.43236561 372.30479469 207.53324451 372.30811501 206.60687733 C372.31335182 205.77422352 372.31858864 204.94156971 372.32398415 204.08368397 C372.42689168 202.1290531 372.42689168 202.1290531 371.21045876 201.13422108 C369.6709791 201.0327397 368.12686918 201.00069965 366.58405495 200.99619007 C365.08300461 200.98801006 365.08300461 200.98801006 363.55163002 200.9796648 C362.44420952 200.97862247 361.33678902 200.97758015 360.19581032 200.97650623 C358.45664093 200.96888515 358.45664093 200.96888515 356.68233681 200.96111012 C354.15268914 200.95037558 351.6230318 200.94176761 349.09337044 200.93499088 C345.0822887 200.92322846 341.07128506 200.90405876 337.06025124 200.88187122 C325.65121319 200.81996982 314.24217734 200.76612401 302.83301735 200.73285389 C296.53723998 200.71441406 290.2416015 200.68535132 283.94592643 200.64484918 C280.61823362 200.62391275 277.29087227 200.61003615 273.9630909 200.60604191 C270.23447079 200.60109675 266.50635754 200.57784175 262.77784157 200.55072498 C261.15314697 200.55523418 261.15314697 200.55523418 259.49563026 200.55983448 C246.84531832 200.42418965 234.62926229 198.15355058 225.17920876 189.21234608 C215.34638244 178.46290036 213.91026232 168.11320819 213.93921852 153.9630785 C213.93482538 152.53820977 213.92952109 151.1133436 213.9233799 149.68848133 C213.91192976 146.63452748 213.90642421 143.58064255 213.9054985 140.52666759 C213.90355067 135.6986296 213.88546161 130.87073368 213.86474037 126.04274464 C213.81566361 114.05866872 213.78462181 102.07455469 213.76343727 90.09039783 C213.74692579 80.76049748 213.72417121 71.43072017 213.68041652 62.10090238 C213.65861561 57.2996983 213.65058435 52.49872789 213.65280926 47.6974777 C213.6511459 44.7167177 213.63711978 41.73611135 213.61959648 38.75540638 C213.61398497 37.37148433 213.61352277 35.98753058 213.61853409 34.60360622 C213.62464862 32.71770286 213.61073218 30.83176595 213.59572792 28.94591236 C213.59371659 27.88978843 213.59170527 26.83366449 213.58963299 25.7455368 C213.41886407 23.1174774 213.41886407 23.1174774 211.87387943 21.33349037 C208.0770976 18.5961408 203.88626004 18.93349915 199.41187477 18.85297108 C198.21230786 18.82587527 198.21230786 18.82587527 196.98850727 18.79823208 C194.31386994 18.73902947 191.63914424 18.68658909 188.96436501 18.63422108 C187.06939881 18.59384002 185.17444041 18.55309145 183.27948952 18.51199818 C178.17245333 18.40263399 173.06530957 18.29948582 167.95811272 18.19793415 C164.7736777 18.13423546 161.58927851 18.06897776 158.40488625 18.0031786 C122.25590294 17.25667015 86.10599814 16.55358132 49.95105934 16.17389393 C47.44429217 16.14730713 44.93753721 16.11954443 42.43079567 16.09064198 C35.25846247 16.00803018 28.08639188 15.94181923 20.91367531 15.9040575 C18.77775473 15.89108362 16.64185645 15.87333479 14.5060215 15.85022449 C-0.41869292 15.54104665 -0.41869292 15.54104665 -14.78954124 19.13422108 Z M254.90479469 314.29926014 C250.30230358 319.28374476 246.21344727 324.66410249 242.21045876 330.13422108 C241.05803688 331.7042992 241.05803688 331.7042992 239.88233376 333.30609608 C204.48632901 383.05852233 189.21135461 445.03773624 198.61023903 505.62119007 C201.61609928 523.35875984 206.89810447 540.83550169 214.34864235 557.21112537 C215.32131214 559.38158429 216.1504789 561.58601139 216.96045876 563.82172108 C225.99774825 586.50217732 242.47916389 607.6547348 259.21045876 625.13422108 C259.73091774 625.68722889 260.25137672 626.2402367 260.78760719 626.81000233 C269.81252918 636.36897528 279.48973636 644.53310353 290.21045876 652.13422108 C290.86288551 652.59892811 291.51531227 653.06363514 292.18750954 653.5424242 C316.46604184 670.59074948 344.03303058 683.47898742 373.21045876 689.13422108 C373.93636208 689.27698475 374.6622654 689.41974842 375.41016579 689.56683826 C389.3417408 692.26757923 402.85238887 693.32094928 417.0244236 693.31952381 C419.44208491 693.3217045 421.85928425 693.33990855 424.27686501 693.35883045 C437.86096196 693.40941184 450.83467211 691.95039633 464.08545876 688.82172108 C465.01672585 688.60515858 465.94799294 688.38859608 466.90748024 688.16547108 C489.819423 682.73983522 510.26519551 674.25127733 530.83545876 662.88422108 C531.95440529 662.26607533 531.95440529 662.26607533 533.0959568 661.63544178 C537.26660071 659.30307738 541.27289333 656.84207364 545.21045876 654.13422108 C548.21919973 655.47225566 550.19431519 656.91006484 552.41749001 659.32953358 C553.00465797 659.96375233 553.59182594 660.59797108 554.19678688 661.25140858 C554.7994236 661.9139867 555.40206032 662.57656483 556.02295876 663.25922108 C556.61399391 663.89859608 557.20502907 664.53797108 557.81397438 665.19672108 C560.82268978 668.46463879 563.77784345 671.77304134 566.69092751 675.12640858 C570.26247663 679.22716863 573.97111996 683.1867129 577.71045876 687.13422108 C582.05842271 691.72423663 586.31053864 696.3688778 590.45557594 701.14301014 C593.41954541 704.50613409 596.50497105 707.75313879 599.58545876 711.00922108 C604.40438157 716.12465679 609.16758241 721.27732573 613.84717751 726.52093983 C616.88967102 729.88528389 619.98595565 733.19744596 623.08545876 736.50922108 C630.72300342 744.67095111 638.29798171 752.88538297 645.77295876 761.19672108 C646.49741188 761.99851795 647.22186501 762.80031483 647.96827126 763.62640858 C649.54266094 765.38731132 651.09843089 767.164954 652.64014626 768.95453358 C660.63498671 778.09505211 669.81463353 786.70843246 682.50733376 787.60297108 C683.99135301 787.63709594 685.47610148 787.64691476 686.96045876 787.63422108 C687.74469215 787.62850086 688.52892555 787.62278065 689.3369236 787.61688709 C699.12536802 787.31883829 707.34379046 783.94864571 714.46436501 777.15375233 C720.77034684 769.86025656 725.39377157 760.77112988 726.21045876 751.13422108 C726.30713844 750.04174061 726.30713844 750.04174061 726.40577126 748.92718983 C727.0142555 736.37213156 721.85234529 724.71524274 713.66710663 715.37264538 C709.14765589 710.52320988 704.40460952 705.89462056 699.67920876 701.24750233 C698.15803295 699.73635047 696.63782667 698.22422211 695.11853981 696.71117115 C691.1383564 692.75179924 687.1467413 688.80416653 683.15204811 684.8594408 C676.75705762 678.5400654 670.38082125 672.20175302 664.00258827 665.86547375 C661.78622265 663.66666363 659.56561671 661.47221488 657.34412575 659.27858448 C655.97203951 657.91972949 654.60000709 656.56082016 653.22803688 655.20184803 C652.61900017 654.60269077 652.00996346 654.00353352 651.38247108 653.38621998 C647.67875413 649.71063431 644.20527637 645.8941083 640.79394531 641.94620514 C638.88600262 639.76294584 636.88907003 637.69257461 634.8357029 635.64593983 C634.05542229 634.86573475 633.27514168 634.08552967 632.4712162 633.28168201 C631.65426781 632.46989491 630.83731941 631.6581078 629.99561501 630.82172108 C629.13987389 629.96739491 628.28413277 629.11306873 627.4024601 628.23285389 C624.69498495 625.53093245 621.98403622 622.83252749 619.27295876 620.13422108 C617.425722 618.29200531 615.57871448 616.44955965 613.73194313 614.60687733 C609.22742872 610.11333047 604.72006471 605.62265787 600.21045876 601.13422108 C601.8813572 596.75353085 604.10627911 592.99245455 606.64795876 589.07172108 C615.14755479 575.68065544 622.96770537 562.13866827 628.21045876 547.13422108 C629.08479643 545.00894848 629.95981113 542.88395429 630.83545876 540.75922108 C633.1263359 534.83157646 634.39492229 528.93839389 635.52686501 522.69672108 C636.12829486 519.56241233 636.87883361 516.56970914 637.77295876 513.50922108 C642.18924477 497.90192757 642.41855544 481.60958536 642.39795876 465.50922108 C642.39768684 464.71052601 642.39741493 463.91183094 642.39713478 463.08893299 C642.37920746 451.64929154 642.10636409 440.43943439 640.21045876 429.13422108 C640.09798805 428.42942616 639.98551735 427.72463123 639.86963844 426.99847889 C638.64325553 419.38679649 637.06006531 412.32018542 634.21045876 405.13422108 C633.91468853 403.63893827 633.64612963 402.1381366 633.39795876 400.63422108 C632.52794574 395.90398224 631.02840061 391.55694483 629.33545876 387.07172108 C628.96843849 386.09912342 628.96843849 386.09912342 628.59400368 385.10687733 C615.31642255 350.70175004 593.75571657 316.91339455 565.21045876 293.13422108 C564.33776344 292.35047108 563.46506813 291.56672108 562.56592751 290.75922108 C490.21369025 226.29843108 377.79663209 222.49777877 254.90479469 314.29926014 Z "
     fill="#FDFDFD"
     transform="translate(97.78954124450684,28.865778923034668)"
     id="path3" />
  <path
     d="M0 0 C2.01171569 0.00531497 4.02320358 0.00005044 6.03491211 -0.00634766 C20.03171505 0.00739491 33.21028691 1.02327186 46.84545898 4.13037109 C48.12291992 4.41912109 49.40038086 4.70787109 50.71655273 5.00537109 C92.81140475 14.85300891 135.04101669 37.33980882 163.04077148 70.96630859 C164.37409768 72.56514563 165.75093327 74.12792751 167.15014648 75.66943359 C188.72598847 99.93425292 210.27324238 134.37022133 215.45874023 167.04443359 C215.85868785 169.20172681 216.50904527 171.07969618 217.28295898 173.13037109 C218.8653947 177.65276352 219.67977407 182.23107443 220.47045898 186.94287109 C220.59348389 187.66539062 220.71650879 188.38791016 220.84326172 189.13232422 C222.67834699 200.57089574 223.03196934 211.97827911 223.03076172 223.53759766 C223.03294267 225.86298096 223.05115749 228.18788393 223.07006836 230.51318359 C223.10725103 240.55091156 222.33417555 250.19996292 220.84545898 260.13037109 C220.68972412 261.21044434 220.53398926 262.29051758 220.37353516 263.40332031 C219.33614861 270.42185918 217.63984485 277.22056883 215.84545898 284.07568359 C215.07807071 287.04003916 214.50346113 290.00295473 213.96655273 293.01708984 C212.93752452 298.27366713 211.07566191 302.93755643 208.90795898 307.81787109 C208.56055664 308.6203125 208.2131543 309.42275391 207.85522461 310.24951172 C207.17200447 311.8256787 206.48404562 313.39980134 205.79101562 314.97167969 C204.97514161 316.83430764 204.18870994 318.70978117 203.40795898 320.58740234 C197.25149411 334.54718644 189.65344979 347.69218885 180.84545898 360.13037109 C182.32534121 363.56770046 184.25830431 365.78116783 186.90869141 368.40478516 C188.16591255 369.65693817 188.16591255 369.65693817 189.4485321 370.93438721 C190.81096794 372.27663361 190.81096794 372.27663361 192.20092773 373.64599609 C193.62995026 375.0670687 195.05897008 376.48814404 196.48783588 377.90937424 C198.49151884 379.89993264 200.49969952 381.885923 202.50793457 383.87188721 C206.48260915 387.80345217 210.45073599 391.74159259 214.41536903 395.68328094 C215.79035029 397.04817954 217.16895539 398.40942447 218.5476532 399.77056885 C222.17810846 403.37325744 225.76089184 406.9581925 229.06933594 410.86083984 C234.10507953 416.72474978 239.71890467 422.04487294 245.22415161 427.46196747 C248.04672373 430.24199997 250.85958926 433.0317707 253.67314148 435.82092667 C258.8934281 440.99574922 264.11742987 446.16666939 269.3581543 451.32080078 C273.02121332 454.92407896 276.67160369 458.53978555 280.3142395 462.16370392 C281.69382683 463.53164336 283.07790947 464.89506627 284.46676636 466.25359344 C296.31702294 477.85149363 306.66653916 489.692865 307.15795898 507.19287109 C306.68631167 519.15384692 302.78289 529.62189398 294.61108398 538.56787109 C284.4976022 547.51785497 273.87947038 548.97344756 260.94067383 548.3125 C246.95692503 547.09694691 236.99022543 534.58769156 228.27661133 524.73486328 C225.79736887 521.95533727 223.25487593 519.23449614 220.72045898 516.50537109 C217.27430698 512.78101269 213.85250322 509.0382502 210.47045898 505.25537109 C206.0967012 500.37451096 201.62359635 495.59023506 197.14550781 490.80541992 C191.66978223 484.95190543 186.25152493 479.04825393 180.84545898 473.13037109 C179.03380153 471.15043196 177.22106646 469.1714824 175.40795898 467.19287109 C174.95799561 466.70165771 174.50803223 466.21044434 174.04443359 465.7043457 C170.61362537 461.96159043 167.168096 458.23262004 163.72045898 454.50537109 C160.27511516 450.78024677 156.85252078 447.03826984 153.47045898 443.25537109 C149.61366842 438.94815244 145.67391801 434.72353367 141.72045898 430.50537109 C136.99596266 425.46418745 132.3206815 420.39632841 127.84545898 415.13037109 C123.25408177 416.75242135 119.35039971 419.16760885 115.22045898 421.69287109 C102.38550769 429.38878155 88.76946757 435.66315008 74.84545898 441.13037109 C74.03077148 441.46423828 73.21608398 441.79810547 72.37670898 442.14208984 C50.41250685 450.71761938 26.60547453 454.31802572 3.16186523 454.31567383 C0.74631785 454.31784782 -1.66876223 454.33602502 -4.08422852 454.35498047 C-26.88423888 454.43874191 -49.62888712 450.6740213 -71.15454102 443.13037109 C-71.78602051 442.91687012 -72.4175 442.70336914 -73.06811523 442.48339844 C-102.49112189 432.49673027 -130.31602086 415.20987517 -152.62866211 393.60498047 C-153.68511624 392.5840232 -154.74843518 391.57013965 -155.81713867 390.56201172 C-172.10108702 375.19165393 -185.61510955 356.87555845 -196.11547852 337.08349609 C-196.83944389 335.72265892 -197.59760597 334.37970053 -198.38110352 333.05224609 C-202.10944875 326.69347323 -204.61581208 320.03511468 -207.15454102 313.13037109 C-207.66705391 311.78332687 -208.18143972 310.43699404 -208.69750977 309.09130859 C-209.22499097 307.70854852 -209.75233679 306.32573679 -210.27954102 304.94287109 C-210.52115967 304.31437256 -210.76277832 303.68587402 -211.01171875 303.03833008 C-231.49133743 248.80695366 -225.72431663 185.20596155 -202.21459961 133.04492188 C-194.50343009 116.30544494 -184.89370675 100.33996253 -173.15454102 86.13037109 C-172.33985352 85.11330078 -171.52516602 84.09623047 -170.68579102 83.04833984 C-159.10198449 68.77654154 -145.95851009 56.01192101 -131.15454102 45.13037109 C-130.21223633 44.41623047 -129.26993164 43.70208984 -128.29907227 42.96630859 C-121.52068805 37.89963756 -114.45740277 33.40154024 -107.15454102 29.13037109 C-106.07172852 28.49357422 -104.98891602 27.85677734 -103.87329102 27.20068359 C-78.52301513 12.98397482 -50.76156421 5.27851592 -22.15454102 1.13037109 C-21.45111572 1.0243457 -20.74769043 0.91832031 -20.02294922 0.80908203 C-13.36898028 -0.07199094 -6.70257128 -0.02098337 0 0 Z M-54.12719727 62.33349609 C-55.57853357 62.90396354 -57.04745527 63.43046089 -58.52563477 63.92724609 C-101.0176623 78.32276211 -135.52768915 112.57090323 -155.27905273 152.17773438 C-162.26215802 166.67900962 -167.51244761 182.24059807 -170.15454102 198.13037109 C-170.35821289 199.27248047 -170.56188477 200.41458984 -170.77172852 201.59130859 C-177.59011882 246.14435207 -166.93910476 294.32062271 -140.48266602 331.01318359 C-139.71438477 332.04185547 -138.94610352 333.07052734 -138.15454102 334.13037109 C-137.51000977 335.01466797 -136.86547852 335.89896484 -136.20141602 336.81005859 C-120.05740867 357.72099724 -99.57559241 374.13698245 -76.15454102 386.13037109 C-75.5298291 386.45231445 -74.90511719 386.77425781 -74.26147461 387.10595703 C-64.87023977 391.88099551 -55.31122876 395.36322397 -45.15454102 398.13037109 C-44.47665527 398.31728516 -43.79876953 398.50419922 -43.1003418 398.69677734 C1.78225955 410.826637 48.3647639 402.41723086 88.4284668 379.57861328 C94.5834154 375.89061781 100.24318629 371.59826423 105.84545898 367.13037109 C106.83932617 366.35822266 107.83319336 365.58607422 108.85717773 364.79052734 C119.10311924 356.65950821 127.85259467 347.46597151 135.84545898 337.13037109 C136.61374023 336.16357422 137.38202148 335.19677734 138.17358398 334.20068359 C165.42137421 298.85399806 175.56104002 254.00292367 172.84545898 210.13037109 C172.51545898 209.47037109 172.18545898 208.81037109 171.84545898 208.13037109 C171.56851693 206.38443206 171.32488515 204.63318701 171.09545898 202.88037109 C163.98295505 155.89631226 140.73237631 115.09717184 102.45092773 86.58349609 C95.18990768 81.25861374 87.7563267 76.45026227 79.84545898 72.13037109 C78.99725586 71.64181641 78.14905273 71.15326172 77.27514648 70.64990234 C62.56619569 62.65217837 45.35104989 57.60527931 28.84545898 55.13037109 C27.65049805 54.92798828 26.45553711 54.72560547 25.22436523 54.51708984 C-0.6494993 50.62409283 -29.67440025 52.532375 -54.12719727 62.33349609 Z "
     fill="#1B2B3D"
     transform="translate(517.154541015625,267.86962890625)"
     id="path4" />
  <path
     d="M0 0 C2.91050497 1.39488886 4.8808921 2.66629113 7.06640625 5.0546875 C7.62884033 5.66352783 8.19127441 6.27236816 8.77075195 6.8996582 C9.36202881 7.551521 9.95330566 8.20338379 10.5625 8.875 C11.18020264 9.54684326 11.79790527 10.21868652 12.43432617 10.91088867 C13.69508985 12.28347463 14.95332073 13.65839144 16.20898438 15.03564453 C17.81618783 16.79839794 19.42958774 18.55509687 21.046875 20.30859375 C26.74719549 26.49474263 32.38331282 32.7379484 38 39 C42.6919684 44.22344801 47.39445806 49.43643282 52.125 54.625 C54.86926449 57.63781636 57.59020429 60.66249845 60.25 63.75 C64.28931224 68.40190935 68.52640359 72.86886641 72.73852539 77.36352539 C76.81279215 81.71522593 80.83048246 86.11120363 84.8046875 90.5546875 C87.29011038 93.32314786 89.79775341 96.07071228 92.3125 98.8125 C92.76874756 99.30999756 93.22499512 99.80749512 93.69506836 100.32006836 C96.1643352 103.00939867 98.63981021 105.69284631 101.12109375 108.37109375 C105.86021224 113.48769025 110.58779967 118.59941604 115.1328125 123.890625 C116.68282786 125.64168838 118.26088804 127.34804438 119.8671875 129.046875 C120.37306396 129.58562256 120.87894043 130.12437012 121.40014648 130.67944336 C122.40910491 131.75121133 123.42407902 132.81735429 124.44555664 133.87719727 C128 137.66565756 128 137.66565756 128 141 C113.66559962 141.0701979 99.33122605 141.12284117 84.99668884 141.15543652 C78.34033422 141.17108189 71.68412592 141.19229982 65.02783203 141.22631836 C58.60228338 141.25895153 52.17684584 141.27686152 45.7512207 141.28463173 C43.30165865 141.29016808 40.85210256 141.3009792 38.40258789 141.31719017 C34.96747775 141.3390165 31.53282475 141.34196467 28.09765625 141.34057617 C27.08848648 141.351362 26.07931671 141.36214783 25.03956604 141.3732605 C18.26445843 141.34369285 12.56990846 140.55754636 6.90625 136.5 C3 132.33333333 3 132.33333333 3 129 C2.34 129 1.68 129 1 129 C-0.0039777 125.9880669 -0.12338573 124.00265532 -0.12025452 120.85578918 C-0.12162918 119.79148178 -0.12300385 118.72717438 -0.12442017 117.63061523 C-0.12082489 116.46320801 -0.11722961 115.29580078 -0.11352539 114.09301758 C-0.11367142 112.86362961 -0.11381744 111.63424164 -0.1139679 110.36759949 C-0.11339016 106.99595988 -0.10837112 103.62438134 -0.10139394 100.25275254 C-0.09514726 96.72935048 -0.09455556 93.20594763 -0.09336853 89.68254089 C-0.0902591 83.0102647 -0.08205092 76.33800488 -0.07201904 69.6657359 C-0.06084588 62.06968253 -0.05534442 54.47362838 -0.05032361 46.87756884 C-0.039868 31.25170308 -0.02227605 15.62585365 0 0 Z "
     fill="#1B2B3D"
     transform="translate(335,65)"
     id="path5" />
  <path
     d="M0 0 C0.74561996 -0.00367669 1.49123992 -0.00735338 2.25945443 -0.01114148 C4.7651142 -0.02217994 7.27073251 -0.02602241 9.77641296 -0.02983093 C11.57005444 -0.03609539 13.36369462 -0.04274218 15.15733337 -0.04974365 C20.03549767 -0.06715326 24.91365217 -0.07770503 29.79183984 -0.08594918 C32.83873874 -0.09109879 35.8856346 -0.0971745 38.93253136 -0.10346031 C48.46328809 -0.12251118 57.99403707 -0.13674327 67.52480918 -0.14507228 C78.53097846 -0.15484922 89.53694686 -0.18118114 100.54304534 -0.22157317 C109.04758957 -0.25171507 117.55207614 -0.26653927 126.05667275 -0.26985329 C131.13743415 -0.27220571 136.21798092 -0.28119123 141.29868507 -0.30631447 C146.07822602 -0.3295669 150.85741059 -0.33383983 155.63699341 -0.32355309 C157.39056266 -0.32305695 159.14414929 -0.32940032 160.89766502 -0.34310913 C163.29336992 -0.3607897 165.68779046 -0.35374175 168.08349609 -0.34057617 C168.77601622 -0.35154542 169.46853635 -0.36251466 170.18204194 -0.37381631 C175.13317548 -0.30820802 177.90256066 1.08288108 181.73222351 4.14717102 C186.54687282 9.61244861 187.0870204 12.91045971 187.00956726 20.09638977 C186.60148338 24.58531246 185.53387189 26.60824675 182.73222351 30.14717102 C178.20937611 33.80256838 174.71571465 34.72777602 169.03448486 34.65510559 C168.27884009 34.66134555 167.52319531 34.66758552 166.74465221 34.67401457 C164.22269139 34.6899186 161.70170059 34.677351 159.17973328 34.66474915 C157.36756325 34.67017148 155.55539764 34.67729476 153.74324036 34.68598938 C148.82788306 34.70421372 143.91286187 34.6971585 138.99749875 34.68447304 C133.85046568 34.67433925 128.70346121 34.68373992 123.556427 34.6900177 C114.91209248 34.69729365 106.26789469 34.68770844 97.62358093 34.6686554 C87.63511679 34.64689367 77.64697934 34.65393319 67.65852314 34.67596102 C59.07829291 34.6941247 50.49816092 34.69666838 41.91791767 34.68620634 C36.79528668 34.67997587 31.67280914 34.67912341 26.55018806 34.69235229 C21.73279821 34.70392398 16.9158286 34.69586089 12.09848404 34.67277527 C10.33245096 34.66749494 8.56638241 34.66899039 6.80036354 34.67782593 C4.38541668 34.6887923 1.9718079 34.67500595 -0.4430542 34.65510559 C-1.48606844 34.66848992 -1.48606844 34.66848992 -2.55015367 34.68214464 C-7.92611563 34.59648774 -10.93249713 33.1106304 -15.26777649 30.14717102 C-19.02820364 25.29819917 -20.64744019 21.46430648 -20.54512024 15.26826477 C-19.88045079 10.18494771 -16.98452689 6.56134406 -13.20527649 3.27217102 C-8.78427503 0.07399975 -5.251876 -0.00138477 0 0 Z "
     fill="#3287F5"
     transform="translate(432.2677764892578,414.8528289794922)"
     id="path6" />
  <path
     d="M0 0 C1.90933319 -0.0129007 1.90933319 -0.0129007 3.85723877 -0.02606201 C5.26568563 -0.03049687 6.67413292 -0.03479526 8.08258057 -0.03897095 C9.56771027 -0.0468757 11.05283807 -0.05514488 12.53796387 -0.06375122 C17.41251808 -0.08992625 22.28708068 -0.10527346 27.16168213 -0.11953735 C28.84177912 -0.12489872 30.52187607 -0.13027624 32.20197296 -0.13566971 C39.19175854 -0.15729101 46.18154185 -0.176027 53.17135239 -0.1872921 C63.17865134 -0.20352832 73.1855619 -0.23670653 83.19271445 -0.29369295 C90.2349001 -0.33242433 97.27698198 -0.35192851 104.31927133 -0.35721266 C108.52267346 -0.3608615 112.72566089 -0.37283275 116.92894745 -0.4053154 C120.88535623 -0.43545304 124.84110062 -0.44168798 128.79759979 -0.42993164 C130.24556967 -0.42971138 131.6935709 -0.43797684 133.14143372 -0.45558548 C143.2026649 -0.57123887 148.87406433 0.60475295 156.23980713 7.40390015 C158.78287206 11.87969442 159.30689399 16.23260777 158.43121338 21.30233765 C157.06199059 25.7416811 154.81051233 28.97205297 151.2273407 31.90052032 C145.85182759 34.67885698 139.44080332 33.98217209 133.52301025 33.93026733 C131.96683786 33.93840511 130.41067704 33.94909245 128.85453796 33.96212769 C124.64151708 33.98941331 120.4293806 33.97890441 116.21634483 33.95985317 C111.80068002 33.94462767 107.38508928 33.95876011 102.96942139 33.96817017 C95.5550176 33.97907603 88.14097278 33.96472697 80.72662354 33.93612671 C72.16316284 33.90347463 63.60055932 33.91405236 55.03711939 33.94708514 C47.6754965 33.97434187 40.31413118 33.97814127 32.95247412 33.96245313 C28.55971069 33.9531146 24.16734975 33.95180822 19.77461243 33.97167206 C15.64394716 33.98904718 11.51438341 33.97690667 7.38383675 33.94230652 C5.87098581 33.93439529 4.35804163 33.93661367 2.8452282 33.94988251 C-9.98942068 34.05204792 -9.98942068 34.05204792 -14.53155518 30.3553772 C-18.46237114 26.3110916 -19.79163072 21.59027304 -20.69769287 16.15390015 C-19.77243636 10.60236108 -16.65266624 6.53789921 -12.63519287 2.71640015 C-8.49048501 0.05953613 -4.8671573 0.02450371 0 0 Z "
     fill="#2CAEA7"
     transform="translate(432.19769287109375,485.8460998535156)"
     id="path7" />
  <path
     d="M0 0 C1.49603508 -0.0046376 1.49603508 -0.0046376 3.02229309 -0.0093689 C4.12199936 -0.00740509 5.22170563 -0.00544128 6.35473633 -0.00341797 C8.1447834 -0.00566879 8.1447834 -0.00566879 9.97099304 -0.00796509 C14.04295071 -0.01037604 18.11482184 -0.00394328 22.18676758 0.00439453 C23.61688226 0.00667559 25.046997 0.00891307 26.47711182 0.0111084 C35.60407403 0.02657178 44.73093967 0.05796548 53.85783768 0.09494019 C60.42799093 0.12106436 66.99814129 0.14071182 73.56832409 0.15774345 C86.43202159 0.19140058 99.29549928 0.24224397 112.15902996 0.31651115 C118.67116424 0.35386123 125.18317695 0.38470413 131.69540405 0.39984131 C137.9159425 0.41482011 144.13609039 0.44907452 150.35645485 0.49757767 C152.67877676 0.51242588 155.00115335 0.52044399 157.32352257 0.52131271 C160.5269021 0.5236638 163.72918273 0.55055838 166.93237305 0.58349609 C167.87009143 0.5784651 168.80780981 0.5734341 169.7739439 0.56825066 C175.34687884 0.65747264 178.58034679 1.40301508 182.99926758 5.12939453 C185.89552793 8.42513907 186.89587055 11.03338608 187.31176758 15.44189453 C186.93495717 19.88825735 185.9015338 21.76887575 182.99926758 25.12939453 C178.38283971 27.96905282 174.91181736 28.50086808 169.53222656 28.48583984 C168.80104488 28.48785306 168.0698632 28.48986628 167.31652451 28.4919405 C164.87589111 28.49488326 162.43591742 28.47625062 159.99536133 28.45751953 C158.23912187 28.45490949 156.48288018 28.45355338 154.72663879 28.45335388 C149.95796045 28.44862736 145.18956275 28.42448731 140.42097473 28.39590073 C136.43411079 28.37384865 132.44724049 28.3615785 128.46033669 28.3491888 C117.92494839 28.31593711 107.38980783 28.25905691 96.85459328 28.19079494 C89.14714895 28.14120867 81.43970013 28.10160603 73.73217773 28.06640625 C62.96893074 28.01634102 52.20593659 27.94675807 41.44290161 27.86291504 C37.31797656 27.83100269 33.19307924 27.80508279 29.06808472 27.78405762 C24.20425603 27.75849447 19.3407668 27.71818013 14.47714806 27.66646004 C12.6904263 27.64976264 10.90364986 27.63805561 9.11686134 27.63171196 C6.67398407 27.62213745 4.2319713 27.59426575 1.78930664 27.56176758 C0.72902834 27.5639221 0.72902834 27.5639221 -0.35266972 27.56612015 C-6.11265861 27.4567685 -10.08206889 25.89249075 -14.31323242 22.00439453 C-16.6128941 18.08645242 -17.34185892 14.66482635 -17.00073242 10.12939453 C-15.56333359 6.08479889 -13.60988199 3.53549424 -10.00073242 1.12939453 C-6.62945407 0.25367874 -3.47379671 0.00323977 0 0 Z "
     fill="#FCFCFC"
     transform="translate(119.000732421875,301.87060546875)"
     id="path8" />
  <path
     d="M0 0 C0.94473679 -0.00852997 1.88947357 -0.01705994 2.86283875 -0.02584839 C4.40736473 -0.02448883 4.40736473 -0.02448883 5.98309326 -0.02310181 C7.61792412 -0.03317764 7.61792412 -0.03317764 9.28578186 -0.04345703 C12.89424176 -0.06247771 16.50251601 -0.06636354 20.11102295 -0.06851196 C22.61962969 -0.07493788 25.12823567 -0.08166608 27.63684082 -0.08868408 C32.8992432 -0.10066761 38.16159848 -0.1044495 43.42401123 -0.10317993 C49.49299418 -0.10198001 55.56162063 -0.12305288 61.63051343 -0.15466726 C67.48138933 -0.18405235 73.33212509 -0.19115377 79.18306732 -0.18996048 C81.66611942 -0.19231808 84.14917426 -0.20115052 86.63217926 -0.21662521 C90.11012628 -0.23626782 93.58716214 -0.23045259 97.06512451 -0.21841431 C98.08671158 -0.22965332 99.10829865 -0.24089233 100.1608429 -0.25247192 C108.08159744 -0.18296783 113.20955174 1.7063037 119.28289795 6.76742554 C122.10248197 10.55894808 122.0344568 14.70999835 121.82977295 19.28695679 C120.97055865 23.96967472 118.97434632 27.26947823 115.28289795 30.26742554 C109.23866423 33.51133431 104.08465485 33.69628088 97.30218506 33.65560913 C96.21840073 33.66086609 95.13461639 33.66612305 94.01799011 33.67153931 C90.44859247 33.68470388 86.87964359 33.67601404 83.3102417 33.66586304 C80.82355158 33.66788463 78.33686204 33.67079679 75.85017395 33.67456055 C70.64434146 33.67897899 65.43866361 33.67256752 60.23284912 33.65853882 C54.88931302 33.64484016 49.54610441 33.64402592 44.20257568 33.65853882 C37.74298685 33.67593059 31.28358079 33.67865479 24.82397652 33.66887283 C22.36440551 33.66687274 19.90482671 33.66932338 17.44526482 33.67631149 C14.00803894 33.68393523 10.57139861 33.67230838 7.13421631 33.65560913 C5.61214569 33.66471817 5.61214569 33.66471817 4.05932617 33.67401123 C-2.21819639 33.61754811 -6.52049013 32.79388821 -11.5803833 28.79476929 C-15.34905151 24.66040821 -16.65582025 21.2307028 -16.8850708 15.62680054 C-16.46115451 9.67225544 -13.03721601 6.06069633 -8.71710205 2.26742554 C-5.70983286 0.45547308 -3.49354286 0.01429314 0 0 Z "
     fill="#FAB314"
     transform="translate(428.71710205078125,556.7325744628906)"
     id="path9" />
  <path
     d="M0 0 C0.84005585 -0.00175232 1.68011169 -0.00350464 2.54562378 -0.00531006 C5.34676137 -0.00973531 8.14783626 -0.00677802 10.94897461 -0.00341797 C12.92915356 -0.00409324 14.90933244 -0.00506512 16.88951111 -0.00631714 C21.07364682 -0.00779695 25.25776129 -0.00563939 29.44189453 -0.00097656 C34.66865129 0.00457833 39.89535563 0.00142573 45.12211037 -0.00439835 C65.33441327 -0.02370455 85.54527411 0.04504551 105.75396538 0.45633316 C107.59045205 0.49323125 109.42699994 0.52721134 111.26359749 0.55810165 C113.78722253 0.60215645 116.31022671 0.65889664 118.83349609 0.71972656 C119.93958253 0.73646612 119.93958253 0.73646612 121.06801414 0.75354385 C126.80332035 0.91663783 130.27953282 1.75731677 134.53881836 5.62939453 C138.086972 9.57178747 138.05691388 11.85684939 137.78881836 17.12939453 C136.59532661 22.14205987 133.80604197 24.17796494 129.78881836 27.12939453 C126.14576217 28.3437466 122.81590948 28.26033768 119.02441406 28.24023438 C117.83277555 28.23969244 117.83277555 28.23969244 116.61706352 28.23913956 C113.96203886 28.23636283 111.3071034 28.22602516 108.65209961 28.21533203 C106.76784825 28.21104269 104.8835963 28.20700939 102.99934387 28.20321655 C96.92911574 28.18823208 90.85898296 28.16052427 84.78881836 28.12939453 C83.78661003 28.12432388 82.7844017 28.11925323 81.75182343 28.11402893 C68.55460017 28.0450972 55.35790273 27.94048712 42.16113281 27.81201172 C37.97170631 27.7716952 33.78228788 27.73730205 29.59277344 27.70751953 C24.42198312 27.67073357 19.25136015 27.62451498 14.08071327 27.57133102 C12.13948712 27.55290396 10.1982268 27.53775366 8.25694847 27.52605057 C5.58013638 27.50922533 2.90371846 27.48023941 0.22705078 27.44824219 C-0.55860764 27.446082 -1.34426605 27.44392181 -2.1537323 27.44169617 C-8.12750607 27.35017872 -11.61882479 26.64937153 -15.96118164 22.50439453 C-18.83553613 18.77501054 -19.21118164 15.8164032 -19.21118164 11.12939453 C-17.57609232 6.40580315 -15.32989656 3.9095271 -11.21118164 1.12939453 C-7.44168584 -0.12710407 -3.92632948 -0.01002435 0 0 Z "
     fill="#FCFCFD"
     transform="translate(121.211181640625,390.87060546875)"
     id="path10" />
  <path
     d="M0 0 C0.97004974 -0.0071553 1.94009949 -0.01431061 2.93954468 -0.02168274 C4.0024472 -0.02437164 5.06534973 -0.02706055 6.16046143 -0.02983093 C7.84137375 -0.03968773 7.84137375 -0.03968773 9.5562439 -0.04974365 C13.27229883 -0.06948745 16.98831333 -0.08114151 20.70440674 -0.09111023 C21.97269569 -0.09518576 23.24098465 -0.09926128 24.5477066 -0.10346031 C30.56783997 -0.1221735 36.58794882 -0.13673834 42.60810351 -0.14507228 C49.54826963 -0.15483942 56.48811635 -0.18114703 63.42816997 -0.22157317 C69.44616199 -0.2554204 75.46399946 -0.26722125 81.48209381 -0.27127647 C84.03854793 -0.27614959 86.59499847 -0.28778407 89.15139008 -0.30631447 C92.73019365 -0.33064409 96.30816309 -0.32975163 99.88702393 -0.32279968 C100.94182953 -0.33560974 101.99663513 -0.3484198 103.08340454 -0.36161804 C110.03613413 -0.312421 114.80132666 0.64036885 119.87628174 5.75263977 C122.2986517 9.98134596 122.70345555 13.25092331 121.89971924 18.06513977 C120.59460604 22.46783176 117.99219186 24.67406427 114.28253174 27.14717102 C112.07447433 27.40164661 112.07447433 27.40164661 109.45117188 27.40786743 C108.45587967 27.41495224 107.46058746 27.42203705 106.43513489 27.42933655 C105.34418015 27.42685913 104.2532254 27.42438171 103.12921143 27.42182922 C101.40440804 27.42949562 101.40440804 27.42949562 99.64476013 27.43731689 C95.83125651 27.45125315 92.01793285 27.45025269 88.20440674 27.44795227 C85.55745374 27.45183773 82.91050137 27.45617209 80.2635498 27.4609375 C74.70850016 27.46915519 69.15350135 27.46824021 63.59844971 27.46284485 C57.18700435 27.45681311 50.7757789 27.46909438 44.36437106 27.49041492 C38.8542538 27.50806169 33.34420632 27.51402717 27.83406186 27.51077718 C24.54572504 27.50896796 21.25757932 27.51288429 17.96926117 27.52549171 C14.29714594 27.53783922 10.62553741 27.53107324 6.95343018 27.51948547 C5.87057236 27.52712921 4.78771454 27.53477295 3.67204285 27.54264832 C-2.98966798 27.49622606 -8.60478057 27.15186751 -13.63153076 22.29951477 C-15.72635969 18.14753368 -15.21473358 13.66959749 -14.71746826 9.14717102 C-13.13835622 5.35730213 -11.18422162 3.31389187 -7.71746826 1.14717102 C-4.83276107 0.18560196 -2.99848322 0.01519022 0 0 Z "
     fill="#FBFBFC"
     transform="translate(117.71746826171875,479.8528289794922)"
     id="path11" />
  <path
     d="M0 0 C1.2953215 -0.01283524 2.59064301 -0.02567047 3.92521667 -0.03889465 C5.34247453 -0.04706418 6.75973673 -0.0545075 8.17700195 -0.0612793 C9.25012099 -0.06739259 9.25012099 -0.06739259 10.3449192 -0.07362938 C14.13424005 -0.0944786 17.92352486 -0.10878322 21.71289062 -0.11816406 C25.61224415 -0.12920465 29.51102327 -0.1635798 33.41017437 -0.20333576 C36.42064924 -0.22958271 39.43098917 -0.23786317 42.44156837 -0.24144554 C43.87798743 -0.24629352 45.31440118 -0.25785622 46.75070763 -0.27648354 C54.81300467 -0.37451361 60.88958106 -0.32769063 67.7277832 4.17700195 C70.66848143 7.05912053 71.22473614 9.3527772 71.3527832 13.42700195 C71.40692383 14.3190332 71.46106445 15.21106445 71.5168457 16.13012695 C70.23541658 21.07821962 67.96612377 24.27205067 63.7277832 27.17700195 C58.31588346 28.3457782 52.97186785 28.20773291 47.4699707 28.09887695 C45.8777018 28.09410233 44.28542148 28.09229868 42.69314575 28.09332275 C39.36558893 28.08708486 36.0397669 28.05410192 32.71264648 28.00024414 C28.45417805 27.9321706 24.19760668 27.91699083 19.93865776 27.92002487 C16.65449004 27.91893589 13.3707346 27.89697909 10.08670425 27.8680191 C8.51669555 27.85532087 6.94664034 27.84741415 5.3765831 27.84444427 C3.18148371 27.83574193 0.98837105 27.80067966 -1.20629883 27.75805664 C-2.4531546 27.74280945 -3.70001038 27.72756226 -4.98464966 27.71185303 C-9.78992251 26.9300879 -12.14921481 24.60979759 -15.0847168 20.86450195 C-16.63067297 17.36575904 -16.67190794 14.97406786 -16.2722168 11.17700195 C-14.63672911 7.00650836 -12.69952301 4.06879157 -9.2722168 1.17700195 C-5.96940144 0.0760635 -3.47900948 0.02999768 0 0 Z "
     fill="#FBFBFB"
     transform="translate(118.272216796875,568.822998046875)"
     id="path12" />
  <path
     d="M0 0 C4.2742558 1.5830577 6.26531794 4.50568404 9 8 C8.34 8.66 7.68 9.32 7 10 C6.01886757 8.70982586 5.04015801 7.41780894 4.0625 6.125 C3.24458984 5.04605469 3.24458984 5.04605469 2.41015625 3.9453125 C1 2 1 2 0 0 Z "
     fill="#273041"
     transform="translate(436,176)"
     id="path38" />
  <path
     d="M0 0 C0.33 0.66 0.66 1.32 1 2 C0.00390625 4.1640625 0.00390625 4.1640625 -1.4375 6.625 C-1.91058594 7.44226563 -2.38367188 8.25953125 -2.87109375 9.1015625 C-3.24363281 9.72804688 -3.61617188 10.35453125 -4 11 C-4.66 11 -5.32 11 -6 11 C-6 8 -6 8 -4.6875 6.625 C-4.130625 6.08875 -3.57375 5.5525 -3 5 C-1.96642853 3.35394174 -0.95939668 1.69036558 0 0 Z "
     fill="#172433"
     transform="translate(303,369)"
     id="path39" />
</svg>
